# xmcd
#
# Track frame offsets:
#	150
#	873
#	18319
#	34722
#	36536
#	52463
#	67307
#	83788
#	98067
#	115235
#	132813
#	134816
#	150568
#	151843
#	167442
#	180458
#	181760
#	196028
#	212724
#	227004
#	242213
#	245422
#	263359
#	289187
#	306993
#	323491
#	324538
#	325661
#	326624
#	327533
#	328223
#	329184
#
# Disc length: 4395 seconds
#
# Revision: 1
# Processed by: cddbd v1.5.2PL0 Copyright (c) Steve Scherf et al.
# Submitted via: audiograbber 1.83.01
#
DISCID=c9112920
DTITLE=Country Hotdisc - Country Hotdisc 032
DYEAR=2001
DGENRE=Country
TTITLE0=Intro - Intro
TTITLE1=Too Lazy To Work, Too Nervous To Steal - Br5-49
TTITLE2=Blue Moon Of Kentucky - Billy Swan
TTITLE3=Radio Talk - Candace Asher
TTITLE4=One Tender Tear - Candace Asher
TTITLE5=Now And Again - Daryle Singletary
TTITLE6=Love Of A Woman - Travis Tritt
TTITLE7=I Never Get Past Go - Dane Stevens
TTITLE8=Tijuana Sunrise - Lamar Morris
TTITLE9=Heartbreak Town - Dixie Chicks
TTITLE10=Talking About The Song Happiness Bell - Dixon Devore Ii
TTITLE11=Happines Bell - Mike Sutterfeild and Karon Penley
TTITLE12=Talking About Her Debut Album - Jackie Storrar
TTITLE13=Somewhere Betwine - Jackie Storrar
TTITLE14=Packing Heat Down In Texas - Jim Bundy
TTITLE15=Dave Wright Talking About The Song - Dave Wright
TTITLE16=Distan Trains - Dave Wright
TTITLE17=You Tell Me - Dave Wright
TTITLE18=Who Do You Woodoo - Tracy Neal
TTITLE19=It Ain´t Easy Bein´ Me - John Anderson
TTITLE20=Talking About The Song She Covred - Victoria Shaw
TTITLE21=Tripped (taffeta) - Victoria Shaw
TTITLE22=Radio Interview - Victoria Shaw
TTITLE23=Radio Interview - Victoria Shaw
TTITLE24=Radio Interview - Victoria Shaw
TTITLE25=Spot - Victoria Shaw
TTITLE26=Spot - Victoria Shaw
TTITLE27=Spot - Victoria Shaw
TTITLE28=Spot - Victoria Shaw
TTITLE29=Spot - Victoria Shaw
TTITLE30=Spot - Cerrito
TTITLE31=Spot - Candace Asher
EXTD=
EXTT0=
EXTT1=
EXTT2=
EXTT3=
EXTT4=
EXTT5=
EXTT6=
EXTT7=
EXTT8=
EXTT9=
EXTT10=
EXTT11=
EXTT12=
EXTT13=
EXTT14=
EXTT15=
EXTT16=
EXTT17=
EXTT18=
EXTT19=
EXTT20=
EXTT21=
EXTT22=
EXTT23=
EXTT24=
EXTT25=
EXTT26=
EXTT27=
EXTT28=
EXTT29=
EXTT30=
EXTT31=
PLAYORDER=
